<svg version="1.1" xmlns="http://www.w3.org/2000/svg" viewBox="0 0 76.36978579481365 80.18592216390186" width="229.10935738444095" height="240.5577664917056"><!-- svg-source:excalidraw --><metadata></metadata><defs><style class="style-fonts">
      </style></defs><g stroke-linecap="round" transform="translate(10 10) rotate(0 28.18489289740694 30.092961081950932)"><path d="M27.3 0.61 C33.09 0.02, 41.09 1.6, 45.68 5.7 C50.27 9.8, 53.77 18.9, 54.86 25.22 C55.94 31.54, 54.92 38.31, 52.2 43.64 C49.48 48.96, 44.23 54.66, 38.55 57.19 C32.88 59.71, 23.9 60.74, 18.14 58.77 C12.37 56.81, 6.96 51.08, 3.96 45.38 C0.95 39.68, -0.74 30.78, 0.12 24.56 C0.97 18.35, 3.87 12.17, 9.11 8.11 C14.35 4.06, 27.01 1.26, 31.55 0.23 C36.09 -0.8, 36.45 1.28, 36.36 1.93 M17.91 1.74 C22.99 -0.63, 30.48 -0.65, 36.26 1.27 C42.04 3.19, 49.53 7.43, 52.6 13.27 C55.66 19.1, 55.82 29.75, 54.65 36.28 C53.48 42.8, 50.12 48.52, 45.56 52.41 C41.01 56.31, 33.02 59.62, 27.31 59.65 C21.61 59.68, 15.85 56.39, 11.33 52.61 C6.8 48.82, 1.69 42.92, 0.17 36.94 C-1.35 30.97, -0.78 22.82, 2.22 16.74 C5.22 10.66, 15.66 3.07, 18.17 0.46 C20.69 -2.14, 17.25 0.33, 17.33 1.13" stroke="none" stroke-width="0" fill="#e6fcf5"></path><path d="M30.52 -0.43 C36.12 -0.26, 44.06 5.1, 48.24 9.67 C52.42 14.24, 55.06 20.64, 55.59 26.98 C56.12 33.32, 54.95 42.49, 51.42 47.72 C47.89 52.95, 40.23 56.92, 34.41 58.36 C28.6 59.81, 21.92 58.9, 16.54 56.41 C11.15 53.92, 4.83 48.98, 2.11 43.41 C-0.61 37.83, -1.48 29.2, 0.2 22.97 C1.87 16.74, 6.17 9.5, 12.17 6.03 C18.17 2.56, 31 2.26, 36.17 2.15 C41.34 2.04, 43.14 5.02, 43.2 5.37 M30.47 0.31 C36.03 0.42, 44.28 4.49, 48.5 9.27 C52.72 14.06, 55.37 22.3, 55.78 29 C56.2 35.7, 54.67 44.37, 50.99 49.46 C47.3 54.55, 39.54 58.08, 33.65 59.56 C27.77 61.04, 20.71 61.05, 15.66 58.33 C10.61 55.61, 5.96 49.21, 3.33 43.22 C0.71 37.24, -1.59 28.56, -0.09 22.41 C1.41 16.27, 7.2 9.9, 12.31 6.36 C17.42 2.82, 27.32 2.21, 30.55 1.16 C33.78 0.11, 31.65 -0.5, 31.69 0.07" stroke="#6741d9" stroke-width="4" fill="none"></path></g><g stroke-linecap="round" transform="translate(34.02774815807015 46.198275132686035) rotate(0 4.414961605822668 6.348157233840766)"><path d="M2.21 0 C4.09 -0.24, 5.43 -0.07, 6.62 0 C6 2.16, 11.23 1.86, 8.83 2.21 C9.09 4.24, 9.55 5.66, 8.83 10.49 C11.3 10.95, 7.33 14.14, 6.62 12.7 C4.75 12.58, 3.25 13.04, 2.21 12.7 C0.09 14.63, -0.63 10.81, 0 10.49 C-0.25 7.59, 0.17 4.4, 0 2.21 C0.31 1.93, 0.64 1.54, 2.21 0" stroke="none" stroke-width="0" fill="#e9ecef"></path><path d="M2.21 0 C3 0.21, 4.18 -0.16, 6.62 0 M2.21 0 C3.9 0.07, 5.71 -0.07, 6.62 0 M6.62 0 C9.02 -0.84, 7.99 0.71, 8.83 2.21 M6.62 0 C8.9 -0.19, 8.61 0.68, 8.83 2.21 M8.83 2.21 C8.95 4.43, 8.56 7.44, 8.83 10.49 M8.83 2.21 C8.85 3.92, 8.84 6.15, 8.83 10.49 M8.83 10.49 C8.49 11.71, 7.76 12.23, 6.62 12.7 M8.83 10.49 C9.18 12.99, 7.57 12.34, 6.62 12.7 M6.62 12.7 C5.56 12.88, 4.14 12.6, 2.21 12.7 M6.62 12.7 C5.11 12.68, 3.64 12.64, 2.21 12.7 M2.21 12.7 C-0.2 11.76, 0.26 12.77, 0 10.49 M2.21 12.7 C-0.35 12.49, 0.1 12.65, 0 10.49 M0 10.49 C0.02 8.55, -0.06 6.84, 0 2.21 M0 10.49 C0.17 7.23, 0.16 4.18, 0 2.21 M0 2.21 C0.5 0.99, 0.82 0.77, 2.21 0 M0 2.21 C0.25 0.77, -0.26 -0.82, 2.21 0" stroke="#1e1e1e" stroke-width="2" fill="none"></path></g><g stroke-linecap="round" transform="translate(29.099418923663507 29.77051101799691) rotate(0 9.445964365946224 10.575373148831147)"><path d="M7.94 -0.29 C10 -0.63, 13.36 0.81, 15.15 2.14 C16.95 3.48, 18.32 5.68, 18.73 7.72 C19.15 9.75, 18.43 12.24, 17.64 14.35 C16.84 16.47, 15.72 19.39, 13.96 20.41 C12.21 21.43, 9.09 21.08, 7.12 20.47 C5.15 19.86, 3.4 18.41, 2.14 16.73 C0.89 15.05, -0.49 12.67, -0.41 10.37 C-0.34 8.07, 1 4.66, 2.6 2.91 C4.21 1.16, 8.19 0.33, 9.21 -0.14 C10.24 -0.6, 8.77 -0.12, 8.74 0.14 M7 0.18 C8.83 -0.28, 12.69 0.1, 14.54 1.19 C16.39 2.28, 17.45 4.7, 18.11 6.73 C18.78 8.76, 19.22 11.15, 18.5 13.35 C17.78 15.55, 15.66 18.71, 13.79 19.92 C11.92 21.13, 9.18 21.08, 7.27 20.59 C5.36 20.1, 3.55 18.51, 2.33 16.97 C1.11 15.43, -0.04 13.62, -0.06 11.36 C-0.08 9.09, 0.91 5.11, 2.2 3.37 C3.49 1.63, 6.82 1.45, 7.69 0.92 C8.56 0.4, 7.43 0.23, 7.4 0.22" stroke="none" stroke-width="0" fill="#ffec99"></path><path d="M7.35 -0.28 C9.21 -0.85, 11.79 -0.04, 13.65 1.16 C15.51 2.36, 17.83 4.72, 18.53 6.94 C19.24 9.17, 18.5 12.43, 17.86 14.52 C17.22 16.61, 16.4 18.34, 14.69 19.49 C12.98 20.65, 9.71 21.8, 7.59 21.43 C5.48 21.06, 3.25 19.04, 2.01 17.29 C0.77 15.54, 0.15 13.22, 0.16 10.93 C0.17 8.64, 0.84 5.31, 2.07 3.55 C3.31 1.8, 6.55 0.89, 7.56 0.39 C8.57 -0.11, 8.07 0.33, 8.14 0.54 M7.96 -0.3 C10.05 -0.69, 13.24 -0.01, 14.94 1.31 C16.64 2.63, 17.63 5.36, 18.15 7.61 C18.67 9.85, 18.78 12.7, 18.05 14.79 C17.32 16.87, 15.47 19.1, 13.79 20.12 C12.1 21.13, 10 21.31, 7.96 20.9 C5.92 20.49, 2.82 19.42, 1.56 17.63 C0.29 15.84, 0.28 12.54, 0.37 10.15 C0.46 7.76, 0.8 5.01, 2.12 3.28 C3.43 1.54, 7.28 0.12, 8.29 -0.28 C9.3 -0.68, 8.27 0.54, 8.18 0.9" stroke="#1e1e1e" stroke-width="2" fill="none"></path></g><g stroke-linecap="round"><g transform="translate(37.92934213530884 24.431487680722967) rotate(0 0 -3.696246925805042)"><path d="M-0.32 -0.3 C-0.37 -1.54, -0.31 -6.21, -0.21 -7.44 M0.16 0.31 C0.22 -0.87, 0.47 -5.72, 0.47 -7.01" stroke="#ffd43b" stroke-width="2" fill="none"></path></g></g><mask></mask><g stroke-linecap="round"><g transform="translate(29.71546007796428 28.3330816579616) rotate(0 -2.6695116686370284 -2.1561440400529364)"><path d="M0 0.28 C-0.96 -0.42, -4.48 -3.19, -5.41 -4 M-0.43 0.12 C-1.47 -0.7, -4.99 -3.72, -5.73 -4.47" stroke="#ffd43b" stroke-width="2" fill="none"></path></g></g><mask></mask><g stroke-linecap="round"><g transform="translate(25.608519049292 38.189740126775064) rotate(0 -3.4908998743713937 -0.10267352571679567)"><path d="M0.31 -0.05 C-0.85 -0.07, -6.03 -0.01, -7.19 0.01 M0.03 -0.38 C-0.99 -0.52, -5.37 -0.49, -6.49 -0.51" stroke="#ffd43b" stroke-width="2" fill="none"></path></g></g><mask></mask><g stroke-linecap="round"><g transform="translate(27.251295460760957 47.430357441287754) rotate(0 -2.464164617203437 1.6427764114689296)"><path d="M0 -0.33 C-0.78 0.13, -4.18 2.46, -4.99 3.05 M-0.43 0.27 C-1.24 0.92, -4.52 2.83, -5.29 3.39" stroke="#ffd43b" stroke-width="2" fill="none"></path></g></g><mask></mask><g stroke-linecap="round"><g transform="translate(46.143224192653406 27.100999349359938) rotate(0 1.437429360035253 -1.950796988619345)"><path d="M0.07 0 C0.57 -0.64, 2.49 -2.89, 2.9 -3.55 M-0.32 -0.31 C0.14 -1.06, 2.04 -3.45, 2.64 -3.99" stroke="#ffd43b" stroke-width="2" fill="none"></path></g></g><mask></mask><g stroke-linecap="round"><g transform="translate(49.63412406702491 34.49349320097008) rotate(0 2.9775322457874154 0.10267352571679567)"><path d="M-0.06 0.31 C0.93 0.38, 4.76 0.15, 5.77 0.17 M-0.51 0.16 C0.6 0.31, 5.41 0.65, 6.48 0.61" stroke="#ffd43b" stroke-width="2" fill="none"></path></g></g><mask></mask><g stroke-linecap="round"><g transform="translate(49.22342996415773 44.966192824084374) rotate(0 2.464164617203437 1.5401028857521055)"><path d="M0.16 -0.11 C1.05 0.46, 4.27 2.9, 5.12 3.4 M-0.19 -0.48 C0.69 0, 4.05 2.33, 4.94 2.95" stroke="#ffd43b" stroke-width="2" fill="none"></path></g></g><mask></mask><g transform="translate(36.92816414208255 53.735361478241316) rotate(0 1.7566092125273371 -6.008112668933961)" stroke="none"><path d="M-0.59 -3.3 C-0.59 -4.02, -0.19 -6.89, 0.7 -7.79 C1.6 -8.69, 4.37 -9.57, 4.81 -8.73 C5.25 -7.88, 3.63 -3.68, 3.34 -2.69" stroke="none" stroke-width="0" fill="#e9ecef" fill-rule="evenodd"></path><path fill="#ffd43b" d="M -2.51,-3.49 Q -2.51,-3.49 -2.55,-4.19 -2.59,-4.89 -2.58,-6.01 -2.56,-7.13 -1.45,-6.09 -0.34,-5.06 -1.46,-5.73 -2.58,-6.41 -2.82,-7.61 -3.07,-8.80 -2.31,-9.89 -1.56,-10.97 -0.52,-11.25 0.50,-11.53 1.53,-11.21 2.56,-10.89 3.31,-9.92 4.05,-8.95 4.09,-8.76 4.13,-8.56 4.16,-8.19 4.19,-7.82 4.13,-7.45 4.07,-7.09 3.93,-6.75 3.78,-6.40 3.56,-6.11 3.33,-5.81 3.05,-5.57 2.76,-5.34 2.42,-5.18 2.09,-5.02 1.73,-4.95 1.36,-4.87 0.99,-4.88 0.62,-4.90 0.26,-5.00 -0.08,-5.11 -0.41,-5.29 -0.73,-5.48 -1.00,-5.73 -1.26,-5.99 -1.46,-6.30 -1.66,-6.62 -1.78,-6.97 -1.90,-7.32 -1.05,-9.02 -0.20,-10.72 0.87,-11.17 1.95,-11.63 3.24,-11.29 4.53,-10.95 5.21,-9.90 5.88,-8.84 5.94,-8.42 6.00,-8.00 5.97,-7.62 5.95,-7.23 5.83,-6.85 5.72,-6.48 5.52,-6.15 5.31,-5.81 5.04,-5.53 4.76,-5.26 4.43,-5.06 4.09,-4.85 3.72,-4.74 3.35,-4.62 2.96,-4.60 2.57,-4.57 2.19,-4.64 1.80,-4.71 1.44,-4.87 1.09,-5.03 0.78,-5.27 0.47,-5.52 0.23,-5.82 -0.00,-6.13 -0.16,-6.49 -0.32,-6.84 -0.39,-7.23 -0.46,-7.61 -0.19,-8.70 0.06,-9.79 0.92,-10.48 1.78,-11.17 3.31,-11.11 4.85,-11.04 5.79,-10.03 6.72,-9.01 6.88,-7.86 7.03,-6.71 6.67,-5.70 6.31,-4.70 6.41,-4.14 6.51,-3.59 6.42,-3.05 6.33,-2.51 6.08,-2.02 5.82,-1.54 5.42,-1.16 5.03,-0.79 4.53,-0.56 4.03,-0.33 3.49,-0.27 2.94,-0.21 2.41,-0.33 1.87,-0.45 1.41,-0.73 0.94,-1.01 0.58,-1.43 0.23,-1.84 0.03,-2.35 -0.17,-2.86 -0.20,-3.41 -0.23,-3.95 -0.08,-4.48 0.06,-5.01 0.36,-5.46 0.67,-5.91 1.11,-6.25 1.54,-6.58 2.06,-6.75 2.58,-6.93 3.13,-6.93 3.68,-6.93 4.19,-6.75 4.71,-6.58 5.15,-6.25 5.58,-5.91 5.89,-5.46 6.20,-5.01 6.34,-4.48 6.49,-3.95 6.46,-3.41 6.43,-2.86 6.23,-2.35 6.03,-1.84 5.67,-1.43 5.32,-1.01 4.85,-0.73 4.38,-0.45 3.84,-0.33 3.31,-0.21 2.77,-0.27 2.22,-0.33 1.72,-0.56 1.23,-0.79 0.83,-1.17 0.43,-1.54 0.18,-2.03 -0.07,-2.51 -0.16,-3.05 -0.25,-3.59 -0.25,-3.59 -0.25,-3.59 0.09,-5.22 0.44,-6.86 1.20,-5.99 1.96,-5.12 3.53,-5.44 5.09,-5.76 5.55,-6.88 6.00,-8.01 5.97,-7.62 5.95,-7.23 5.83,-6.85 5.72,-6.48 5.52,-6.15 5.31,-5.81 5.04,-5.54 4.76,-5.26 4.43,-5.06 4.09,-4.85 3.72,-4.74 3.35,-4.62 2.96,-4.60 2.57,-4.57 2.19,-4.64 1.80,-4.71 1.45,-4.87 1.09,-5.03 0.78,-5.27 0.47,-5.52 0.23,-5.82 -0.00,-6.13 -0.16,-6.49 -0.32,-6.84 -0.39,-7.23 -0.46,-7.61 -0.23,-7.10 -0.00,-6.59 1.28,-5.91 2.58,-5.23 3.35,-6.90 4.13,-8.56 4.16,-8.19 4.19,-7.82 4.13,-7.45 4.07,-7.09 3.93,-6.75 3.78,-6.40 3.56,-6.11 3.33,-5.81 3.05,-5.57 2.76,-5.34 2.42,-5.18 2.09,-5.02 1.73,-4.95 1.36,-4.87 0.99,-4.88 0.62,-4.90 0.26,-5.00 -0.08,-5.10 -0.41,-5.29 -0.73,-5.48 -1.00,-5.73 -1.26,-5.99 -1.46,-6.30 -1.66,-6.62 -1.78,-6.97 -1.90,-7.32 -1.64,-6.84 -1.39,-6.36 -0.39,-5.97 0.60,-5.58 1.65,-6.68 2.70,-7.78 2.24,-8.97 1.79,-10.15 2.32,-8.63 2.86,-7.12 2.68,-5.97 2.50,-4.82 2.44,-4.12 2.38,-3.42 2.34,-3.13 2.30,-2.84 2.19,-2.56 2.08,-2.29 1.91,-2.05 1.74,-1.81 1.52,-1.61 1.29,-1.42 1.03,-1.29 0.76,-1.15 0.48,-1.09 0.19,-1.02 -0.10,-1.03 -0.39,-1.03 -0.68,-1.10 -0.96,-1.18 -1.22,-1.32 -1.48,-1.46 -1.70,-1.66 -1.92,-1.86 -2.08,-2.10 -2.25,-2.35 -2.35,-2.63 -2.45,-2.91 -2.48,-3.20 -2.51,-3.49 -2.51,-3.49 L -2.51,-3.49 Z"></path></g><g stroke-linecap="round"><g transform="translate(34.25240268724269 52.15785057413166) rotate(0 4.152414174149385 1.3934275752179133)"><path d="M-0.1 -0.01 C1.32 0.48, 6.76 2.63, 8.22 3.14 M0.49 -0.32 C1.89 0.06, 6.55 2.23, 7.9 2.7" stroke="#1e1e1e" stroke-width="1" fill="none"></path></g></g><mask></mask><g stroke-linecap="round"><g transform="translate(34.30813979025129 50.20705196882648) rotate(0 4.0130714166276675 1.3098219207048487)"><path d="M0.09 0.21 C1.46 0.68, 6.61 2.53, 7.96 2.94 M-0.29 0.01 C1.05 0.37, 6.25 1.97, 7.65 2.49" stroke="#1e1e1e" stroke-width="1" fill="none"></path></g></g><mask></mask><g stroke-linecap="round"><g transform="translate(34.58682530529495 54.052912076428015) rotate(0 3.8458601076014247 1.1983477146874293)"><path d="M-0.13 -0.02 C1.09 0.43, 6.31 2.32, 7.61 2.71 M0.45 -0.33 C1.59 0.02, 6.13 1.74, 7.3 2.25" stroke="#1e1e1e" stroke-width="1" fill="none"></path></g></g><mask></mask><g stroke-linecap="round"><g transform="translate(34.25240268724269 55.669288063680824) rotate(0 3.8179915560971267 1.1983477146874293)"><path d="M0.03 -0.34 C1.31 0.03, 6.68 1.62, 7.95 2.11 M-0.38 0.25 C0.86 0.67, 6.54 2.12, 7.84 2.42" stroke="#1e1e1e" stroke-width="1" fill="none"></path></g></g><mask></mask><g stroke-linecap="round"><g transform="translate(34.531088202286355 57.06271563889868) rotate(0 1.978667156809479 0.8639250966351142)"><path d="M-0.33 0.23 C0.31 0.48, 3.1 1.21, 3.83 1.48 M0.15 0.04 C0.73 0.33, 2.87 1.6, 3.48 1.8" stroke="#1e1e1e" stroke-width="1" fill="none"></path></g></g><mask></mask></svg>